<?xml version="1.0" encoding="utf-8"?>
<!-- Generator: Adobe Illustrator 24.2.3, SVG Export Plug-In . SVG Version: 6.00 Build 0)  -->
<svg version="1.1" id="Layer_1" xmlns="http://www.w3.org/2000/svg" xmlns:xlink="http://www.w3.org/1999/xlink" x="0px" y="0px"
	 viewBox="0 0 800 315" style="enable-background:new 0 0 800 315;" xml:space="preserve">
<style type="text/css">
	.st0{fill:#231F20;}
	.st1{font-family:'Poppins-Regular';}
	.st2{font-size:43.9048px;}
	.st3{letter-spacing:2;}
</style>
<g>
	<text transform="matrix(1 0 0 1 43.9801 277.8251)" class="st0 st1 st2 st3">Next Billion Native Commerce</text>
	<g>
		<path class="st0" d="M53.4,77.4h36.3v133.3H53.4V77.4z M176.5,92.9c4.4,5.5,7.6,12.4,9.6,20.8c2,8.4,2.9,18.7,2.9,30.9v66.1h-36.3
			v-66.3c0-5-0.1-9.8-0.4-14.3c-0.3-4.5-1.2-8.6-2.8-12c-1.6-3.5-4.2-6.2-7.7-8.2c-3.6-2-8.6-2.9-15.2-2.9c-6.2,0-12,1.3-17.3,4v0.3
			l-0.3-0.3L96,87.9l0.3-0.3c9.2-8.3,20.8-12.4,34.7-12.4C152.3,75.3,167.5,81.1,176.5,92.9z"/>
		<path class="st0" d="M198.4,210.7l35.7-48.5l32.5,14.9l-24.8,33.6H198.4z M290.7,144.6l49.1,66.1H296v-0.3l-48.5-65.6l-48.8-67.5
			h43.2l26.9,45.3L296,77.4h43.7l-0.5,0.3L290.7,144.6z"/>
		<path class="st0" d="M397.6,165.1c0,4.1,1.5,7.6,4.4,10.4c2.9,2.8,6.4,4.3,10.5,4.3h25.9v30.9h-25.9c-6.9,0-13.5-1.3-19.6-3.9
			c-6.1-2.6-11.5-6.1-16-10.7c-4.5-4.5-8.1-9.8-10.8-15.9c-2.7-6-4-12.5-4-19.5v-40h-19.2V91.3h19.2V43h35.5V165.1z M438.4,91.3
			v29.6h-19.7l-16.5-29.6H438.4z"/>
		<path class="st0" d="M528.8,75.8c9.4,0,18.3,1.8,26.7,5.3c8.4,3.6,15.6,8.4,21.9,14.7c6.2,6.2,11.2,13.5,14.8,21.9
			c3.6,8.4,5.5,17.2,5.5,26.7c0,9.4-1.8,18.3-5.5,26.7c-3.6,8.4-8.6,15.6-14.8,21.9c-6.2,6.2-13.5,11.1-21.9,14.7
			c-8.4,3.6-17.2,5.3-26.7,5.3c-18.3,0-32.3-6.8-41.9-20.3v18.1h-35.2V24.1h35.5v120.3c0,5.2,1,10,2.9,14.4c2,4.4,4.6,8.3,7.9,11.6
			c3.3,3.3,7.2,5.9,11.7,7.9c4.5,2,9.4,2.9,14.5,2.9c5,0,9.7-1,14.3-2.9c4.5-2,8.4-4.6,11.7-7.9c3.3-3.3,5.9-7.2,7.9-11.6
			c2-4.4,2.9-9.2,2.9-14.4c0-5.2-1-10-2.9-14.4c-2-4.4-4.6-8.4-7.9-11.7c-3.3-3.4-7.2-6-11.7-7.9s-9.3-2.8-14.3-2.8
			c-4.8,0-9.6,1-14.4,2.9l-0.3,0.3l-0.3-0.5l-13.1-24l0.3-0.3C505.2,79.2,516,75.8,528.8,75.8z"/>
		<path class="st0" d="M610.9,77.4h36.3v133.3h-36.3V77.4z M734.1,92.9c4.4,5.5,7.6,12.4,9.6,20.8c2,8.4,2.9,18.7,2.9,30.9v66.1
			h-36.3v-66.3c0-5-0.1-9.8-0.4-14.3c-0.3-4.5-1.2-8.6-2.8-12c-1.6-3.5-4.2-6.2-7.7-8.2c-3.6-2-8.6-2.9-15.2-2.9
			c-6.2,0-12,1.3-17.3,4v0.3l-0.3-0.3l-13.1-23l0.3-0.3c9.2-8.3,20.8-12.4,34.7-12.4C709.8,75.3,725,81.1,734.1,92.9z"/>
	</g>
</g>
</svg>
